#!OML:ASF X:\für Bonn\!DataBase\2005_08_10_Bjorn_Final\c3d\bjorn.ASF
:FULLY-SPECIFIED
:DEGREES
125
root 0.723334 19.5396 4.26729 -203.303 -42.7117 -156.353
lowerback 35.4193 -1.12461 -3.49454
upperback 19.6039 -7.38961 -2.1819
thorax 3.87881 -5.85738 1.40571
lowerneck -11.9045 -8.3612 -6.89248
upperneck 5.22083 -14.8072 28.0589
head 6.51065 -6.74651 8.63317
rclavicle -9.22361e-014 -1.90833e-014
rhumerus -45.5794 -6.52204 -82.9849
rradius 25.6284
rwrist 20.3443
rhand -9.4494 13.2638
rfingers 7.12502
rthumb 16.5138 -16.0534
lclavicle -9.22361e-014 -1.90833e-014
lhumerus 59.1176 -30.7822 85.691
lradius 99.2934
lwrist -1.85094
lhand -46.7785 -21.2183
lfingers 7.12502
lthumb -19.4944 7.82438
rfemur -92.855 -5.21624 23.4203
rtibia 122.028
rfoot 6.79231 16.2652
rtoes -18.9269
lfemur -8.76621 -12.4606 -1.25532
ltibia 23.7853
lfoot 0.598733 -19.9636
ltoes 7.18861
126
root 0.700048 19.5411 4.26999 -203.026 -42.3275 -156.772
lowerback 34.8501 -1.17924 -3.56432
upperback 19.5602 -7.41227 -2.2091
thorax 4.02651 -5.86062 1.38301
lowerneck -12.0593 -8.1519 -6.80625
upperneck 5.45766 -14.5727 27.9118
head 6.54441 -6.60662 8.60144
rclavicle 5.725e-014 5.725e-014
rhumerus -45.2296 -6.13133 -83.0532
rradius 25.8078
rwrist 20.0667
rhand -9.70087 13.3602
rfingers 7.12502
rthumb 16.2717 -15.977
lclavicle 5.725e-014 5.725e-014
lhumerus 58.2107 -30.2149 86.2692
lradius 99.1286
lwrist -2.04967
lhand -47.0533 -21.1914
lfingers 7.12502
lthumb -19.7585 7.82441
rfemur -92.1432 -5.07621 23.5185
rtibia 121.754
rfoot 6.54955 16.1764
rtoes -19.9258
lfemur -8.50549 -12.3883 -1.53297
ltibia 23.8209
lfoot 0.303937 -19.5997
ltoes 6.99418
127
root 0.671638 19.5389 4.27241 -202.719 -41.9319 -157.232
lowerback 34.2427 -1.24086 -3.65443
upperback 19.5018 -7.44029 -2.23632
thorax 4.1771 -5.86544 1.37002
lowerneck -12.2115 -7.93734 -6.6782
upperneck 5.74618 -14.3335 27.6922
head 6.58238 -6.45995 8.5383
rclavicle 8.5875e-014 1.01778e-013
rhumerus -44.8953 -5.57965 -83.1811
rradius 26.0205
rwrist 19.6336
rhand -9.99531 13.4319
rfingers 7.12502
rthumb 15.9882 -15.9283
lclavicle 8.5875e-014 1.01778e-013
lhumerus 57.2759 -29.5973 86.8026
lradius 98.9397
lwrist -2.22554
lhand -47.2547 -21.1428
lfingers 7.12502
lthumb -19.9521 7.85295
rfemur -91.3912 -5.04363 23.5798
rtibia 121.464
rfoot 6.39564 15.991
rtoes -20.238
lfemur -8.22336 -12.321 -1.85941
ltibia 23.8399
lfoot -0.0640109 -19.2047
ltoes 6.6223
128
root 0.641732 19.535 4.2729 -202.39 -41.5142 -157.733
lowerback 33.6264 -1.29056 -3.75525
upperback 19.4254 -7.45014 -2.28559
thorax 4.3119 -5.85774 1.33581
lowerneck -12.3845 -7.72568 -6.36281
upperneck 6.11189 -14.1124 27.2991
head 6.62074 -6.31323 8.37789
rclavicle 3.18055e-015 1.145e-013
rhumerus -44.5686 -5.20942 -83.2374
rradius 26.1916
rwrist 19.3702
rhand -10.1907 13.512
rfingers 7.12502
rthumb 15.8 -15.8632
lclavicle 3.18055e-015 1.145e-013
lhumerus 56.2993 -28.976 87.2478
lradius 98.7117
lwrist -2.40645
lhand -47.4834 -21.0931
lfingers 7.12502
lthumb -20.1719 7.87954
rfemur -90.5506 -5.01187 23.6274
rtibia 121.132
rfoot 6.2269 15.606
rtoes -20.3168
lfemur -7.89773 -12.2304 -2.21904
ltibia 23.81
lfoot -0.347638 -18.7911
ltoes 6.41195
129
root 0.609944 19.5345 4.27284 -202.053 -41.0928 -158.238
lowerback 32.9572 -1.3448 -3.89521
upperback 19.3468 -7.46819 -2.30966
thorax 4.47573 -5.85842 1.34473
lowerneck -12.6383 -7.51696 -5.95037
upperneck 6.60486 -13.896 26.7125
head 6.68991 -6.15202 8.13151
rclavicle -4.13472e-014 -1.59028e-014
rhumerus -44.2189 -4.71129 -83.3099
rradius 26.4006
rwrist 18.9701
rhand -10.3596 13.5354
rfingers 7.12502
rthumb 15.6374 -15.8526
lclavicle -4.13472e-014 -1.59028e-014
lhumerus 55.2634 -28.269 87.6671
lradius 98.4904
lwrist -2.60226
lhand -47.6308 -21.0748
lfingers 7.12502
lthumb -20.3136 7.88285
rfemur -89.6064 -4.97242 23.6622
rtibia 120.737
rfoot 5.83949 15.1692
rtoes -20.3567
lfemur -7.56942 -12.1169 -2.58796
ltibia 23.7666
lfoot -0.64338 -18.3975
ltoes 6.14216
130
root 0.576109 19.5373 4.27176 -201.745 -40.6492 -158.734
lowerback 32.3007 -1.40612 -4.04251
upperback 19.2341 -7.48735 -2.32213
thorax 4.6043 -5.85659 1.37362
lowerneck -12.8731 -7.29599 -5.44893
upperneck 7.16848 -13.6574 25.9728
head 6.75598 -5.97711 7.82242
rclavicle -2.22639e-014 4.45278e-014
rhumerus -43.8848 -4.20018 -83.3248
rradius 26.5751
rwrist 18.6266
rhand -10.4144 13.5593
rfingers 7.12502
rthumb 15.5846 -15.8328
lclavicle -2.22639e-014 4.45278e-014
lhumerus 54.1353 -27.4888 88.0732
lradius 98.2598
lwrist -2.81317
lhand -47.6708 -20.9827
lfingers 7.12502
lthumb -20.352 7.97084
rfemur -88.5384 -4.93218 23.681
rtibia 120.289
rfoot 5.29663 14.7629
rtoes -20.5206
lfemur -7.17991 -12.0006 -2.96264
ltibia 23.6773
lfoot -0.983461 -18.008
ltoes 5.69676
131
root 0.541722 19.5384 4.26856 -201.425 -40.2392 -159.231
lowerback 31.5992 -1.48845 -4.18329
upperback 19.1201 -7.52159 -2.36206
thorax 4.74985 -5.85739 1.37017
lowerneck -13.1061 -7.06119 -4.88764
upperneck 7.75417 -13.4252 25.2438
head 6.83246 -5.80709 7.5078
rclavicle 3.18055e-015 3.49861e-014
rhumerus -43.5518 -3.78508 -83.3572
rradius 26.7759
rwrist 18.2517
rhand -10.3687 13.5281
rfingers 7.12502
rthumb 15.6286 -15.8606
lclavicle 3.18055e-015 3.49861e-014
lhumerus 52.9587 -26.6916 88.3465
lradius 98.0375
lwrist -2.90381
lhand -47.6071 -21.0003
lfingers 7.12502
lthumb -20.2909 7.95983
rfemur -87.4377 -4.95984 23.6897
rtibia 119.825
rfoot 4.74212 14.2908
rtoes -21.0604
lfemur -6.77267 -11.8879 -3.34373
ltibia 23.5041
lfoot -1.23974 -17.63
ltoes 5.24391
132
root 0.505293 19.5433 4.26507 -201.069 -39.7916 -159.761
lowerback 30.8412 -1.55925 -4.34032
upperback 18.9959 -7.53553 -2.39427
thorax 4.91289 -5.84799 1.37377
lowerneck -13.3137 -6.83401 -4.28922
upperneck 8.36137 -13.1888 24.4204
head 6.90445 -5.63731 7.15771
rclavicle -7.31528e-014 1.90833e-014
rhumerus -43.2046 -3.36761 -83.3763
rradius 26.9949
rwrist 17.8107
rhand -10.2497 13.4465
rfingers 7.12502
rthumb 15.7432 -15.9332
lclavicle -7.31528e-014 1.90833e-014
lhumerus 51.7404 -25.8725 88.608
lradius 97.8056
lwrist -3.01255
lhand -47.4548 -20.9601
lfingers 7.12502
lthumb -20.1445 8.0155
rfemur -86.3006 -4.99228 23.6593
rtibia 119.322
rfoot 4.26198 13.7982
rtoes -21.6514
lfemur -6.31861 -11.7259 -3.7456
ltibia 23.2314
lfoot -1.43074 -17.2504
ltoes 4.89613
133
root 0.46821 19.5504 4.26123 -200.751 -39.351 -160.259
lowerback 29.8265 -1.67529 -4.45687
upperback 18.82 -7.56731 -2.51129
thorax 5.38122 -5.85128 1.34805
lowerneck -13.5233 -6.584 -3.68607
upperneck 8.99226 -12.9238 23.5799
head 6.98441 -5.45581 6.80742
rclavicle -1.46306e-013 -8.5875e-014
rhumerus -42.8003 -3.02015 -83.3664
rradius 27.1791
rwrist 17.4324
rhand -10.0572 13.3104
rfingers 7.12502
rthumb 15.9286 -16.0546
lclavicle -1.46306e-013 -8.5875e-014
lhumerus 50.4654 -24.9828 88.8158
lradius 97.504
lwrist -3.07416
lhand -47.1794 -21.0713
lfingers 7.12502
lthumb -19.8797 7.93196
rfemur -85.07 -5.04939 23.6286
rtibia 118.785
rfoot 3.96127 13.3037
rtoes -21.8572
lfemur -5.80278 -11.5445 -4.13113
ltibia 22.8527
lfoot -1.55973 -16.8849
ltoes 4.69845
134
root 0.43079 19.5639 4.2568 -200.401 -38.8859 -160.776
lowerback 29.0595 -1.77859 -4.62906
upperback 18.6409 -7.60849 -2.52796
thorax 5.51842 -5.85016 1.37674
lowerneck -13.6883 -6.32014 -3.10576
upperneck 9.65912 -12.6314 22.7075
head 7.06884 -5.26546 6.45761
rclavicle 4.45278e-014 1.27222e-014
rhumerus -42.3423 -2.85079 -83.2333
rradius 27.2571
rwrist 17.3181
rhand -9.88808 13.1888
rfingers 7.12502
rthumb 16.0914 -16.1631
lclavicle 4.45278e-014 1.27222e-014
lhumerus 49.1274 -24.05 89.0306
lradius 97.1158
lwrist -3.1012
lhand -46.8136 -21.287
lfingers 7.12502
lthumb -19.528 7.75226
rfemur -83.7835 -5.07257 23.5472
rtibia 118.19
rfoot 3.78714 12.8162
rtoes -21.8285
lfemur -5.24669 -11.3187 -4.52488
ltibia 22.3612
lfoot -1.65057 -16.5445
ltoes 4.21458
